<?xml version="1.0" encoding="UTF-8"?>
<svg version="1.1" xmlns="http://www.w3.org/2000/svg" width="337" height="326">
<path d="M0 0 C1.31524155 0.00045822 2.63048309 0.00091644 3.98558044 0.00138855 C6.74638281 0.00294027 9.50705308 0.01113603 12.26782227 0.0246582 C15.8120829 0.04179709 19.35620114 0.04546758 22.90049839 0.04471302 C26.28785151 0.04504905 29.67515742 0.05387137 33.0625 0.0625 C34.33839493 0.06361282 35.61428986 0.06472565 36.92884827 0.06587219 C38.68218727 0.07544197 38.68218727 0.07544197 40.47094727 0.08520508 C41.50445816 0.08901688 42.53796906 0.09282867 43.60279846 0.09675598 C45.93359375 0.23046875 45.93359375 0.23046875 46.93359375 1.23046875 C47.0346263 4.03040472 47.07329463 6.80515519 47.06640625 9.60546875 C47.06736298 10.44513184 47.0683197 11.28479492 47.06930542 12.14990234 C47.06998723 13.9287117 47.06813292 15.70752352 47.06396484 17.48632812 C47.05861658 20.21880651 47.0639098 22.95112051 47.0703125 25.68359375 C47.06965172 27.40755245 47.06837056 29.13151104 47.06640625 30.85546875 C47.06843048 31.67837402 47.07045471 32.5012793 47.07254028 33.34912109 C47.04854429 39.11551821 47.04854429 39.11551821 45.93359375 40.23046875 C44.45088743 40.3320984 42.96346738 40.36614687 41.47729492 40.37231445 C40.52928513 40.37934891 39.58127533 40.38638336 38.60453796 40.39363098 C37.05619011 40.3998774 37.05619011 40.3998774 35.4765625 40.40625 C33.31053717 40.4294494 31.14452151 40.45356678 28.97851562 40.47851562 C25.54835561 40.51365013 22.11855054 40.5429787 18.68823242 40.55639648 C15.38806686 40.57184781 12.08895161 40.61204488 8.7890625 40.65625 C7.24982368 40.65338737 7.24982368 40.65338737 5.67948914 40.65046692 C0.25732442 40.73721013 0.25732442 40.73721013 -4.71337891 42.67163086 C-6.80555399 46.62834091 -6.61064907 50.33493579 -6.5703125 54.74609375 C-6.57973373 55.6758905 -6.58915497 56.60568726 -6.59886169 57.56365967 C-6.6275278 60.53615295 -6.63059059 63.50784843 -6.62890625 66.48046875 C-6.63252384 69.43869095 -6.64219585 72.39632947 -6.66966248 75.35443115 C-6.68633241 77.19310218 -6.68942064 79.03196425 -6.676651 80.8706665 C-6.73004629 87.44387233 -7.63098869 93.18090241 -11.86328125 98.48046875 C-12.5078125 99.05796875 -13.15234375 99.63546875 -13.81640625 100.23046875 C-17.860554 104.02324351 -21.49434129 107.9936473 -25.06640625 112.23046875 C-25.72382812 112.96394531 -26.38125 113.69742188 -27.05859375 114.453125 C-31.26339233 119.32563624 -31.26339233 119.32563624 -32.75390625 125.41796875 C-31.54669003 132.11253142 -27.62139259 135.81763481 -22.92578125 140.3828125 C-6.97295482 156.2350959 -6.97295482 156.2350959 -6.92456055 166.56835938 C-6.91752609 167.41603882 -6.91049164 168.26371826 -6.90324402 169.13708496 C-6.89907974 170.04446411 -6.89491547 170.95184326 -6.890625 171.88671875 C-6.86743702 173.81511521 -6.84332011 175.74350068 -6.81835938 177.671875 C-6.78318228 180.70694454 -6.75385716 183.74160638 -6.74047852 186.77685547 C-6.72502691 189.7098075 -6.6848498 192.64157809 -6.640625 195.57421875 C-6.64253342 196.4815979 -6.64444183 197.38897705 -6.64640808 198.32385254 C-6.57538 201.97489116 -6.42994457 204.54281901 -4.70898438 207.7980957 C-0.39081273 210.13870112 3.95578954 209.81367626 8.7890625 209.8046875 C9.84644119 209.81885208 10.90381989 209.83301666 11.99324036 209.84761047 C15.36929512 209.8895472 18.74481498 209.90476234 22.12109375 209.91796875 C25.50783596 209.94697674 28.89444085 209.98145347 32.28108215 210.02046204 C34.3888377 210.04303733 36.49667868 210.0588029 38.60453796 210.06730652 C39.55254776 210.07434097 40.50055756 210.08137543 41.47729492 210.08862305 C42.73493904 210.09384224 42.73493904 210.09384224 44.01799011 210.09916687 C45.93359375 210.23046875 45.93359375 210.23046875 46.93359375 211.23046875 C47.02224583 214.11480695 47.04880671 216.97509033 47.03125 219.859375 C47.02983505 220.7236058 47.0284201 221.58783661 47.02696228 222.47825623 C47.02134614 225.24986167 47.00879094 228.02138755 46.99609375 230.79296875 C46.99108083 232.66731655 46.98651756 234.5416656 46.98242188 236.41601562 C46.97137147 241.02086419 46.95409605 245.62565296 46.93359375 250.23046875 C38.5010263 250.32355533 30.06867708 250.39442798 21.63572121 250.43771744 C17.71903836 250.45850467 13.8027096 250.48665747 9.88623047 250.53222656 C6.09957829 250.5760044 2.31326454 250.59967235 -1.47362137 250.60997772 C-2.91119329 250.61731234 -4.34874876 250.63163374 -5.78617477 250.65338898 C-19.30763349 250.84971112 -28.82964774 247.990563 -38.75390625 238.640625 C-46.67172007 230.22794781 -48.18585494 219.77560051 -48.20011902 208.59124756 C-48.20238458 207.85390483 -48.20465013 207.1165621 -48.20698434 206.35687566 C-48.21327997 203.90293993 -48.21249784 201.44906006 -48.21166992 198.99511719 C-48.21466421 197.2287031 -48.21806736 195.46228966 -48.22184753 193.69587708 C-48.2306649 188.9085121 -48.23302471 184.121165 -48.23366332 179.33379269 C-48.23437518 176.3390961 -48.23651209 173.34440402 -48.23916054 170.34970856 C-48.2484069 159.891502 -48.25249637 149.43330817 -48.25170898 138.97509766 C-48.25110858 129.24410147 -48.26165492 119.51316079 -48.27745265 109.78217864 C-48.29055225 101.4133547 -48.29589186 93.04454884 -48.29525357 84.67571473 C-48.29499927 79.68379148 -48.29781288 74.69191757 -48.30843163 69.70000458 C-48.31815323 65.00172581 -48.31816405 60.30354312 -48.31091499 55.60526085 C-48.30987415 53.88766272 -48.31220212 52.17005848 -48.31827545 50.45247078 C-48.36559301 36.13548058 -48.27888691 22.37618585 -38.17578125 11.125 C-27.0197349 0.82542178 -14.64567846 -0.08367552 0 0 Z " fill="#0E4691" transform="translate(89.06640625,34.76953125)"/>
<path d="M0 0 C7.73942618 -0.06316944 15.47790122 -0.12324352 23.21736145 -0.15525055 C26.82259318 -0.17099529 30.42760818 -0.19198205 34.03271484 -0.22631836 C37.5146215 -0.25926816 40.99631996 -0.2769267 44.47837067 -0.28463173 C46.43232601 -0.29275243 48.38619931 -0.31611272 50.34002686 -0.33988953 C63.6610551 -0.34236294 74.22731135 1.89235423 84.19140625 11.00390625 C94.58061124 21.69923882 94.58912884 33.72185219 94.53344727 47.77514648 C94.5405153 49.65875928 94.54926401 51.54236641 94.55955505 53.42596436 C94.5819593 58.51489334 94.57913037 63.60350999 94.57023358 68.69246936 C94.56510503 72.95176405 94.57243136 77.21100102 94.57970566 81.47028977 C94.59667613 91.52329516 94.59316749 101.57614865 94.57641602 111.62915039 C94.55949511 121.97723137 94.57533544 132.32489049 94.6076389 142.67292541 C94.63438473 151.58029901 94.64159738 160.4875417 94.63312382 169.3949514 C94.62820948 174.70494425 94.63032925 180.01468338 94.65091133 185.32464409 C94.66934714 190.31946019 94.66321355 195.31367223 94.63871193 200.30845642 C94.63372915 202.13367478 94.6371274 203.95893981 94.64986038 205.78412056 C94.73721084 219.38903999 93.24072527 230.70019257 83.38671875 241.0234375 C76.06344085 247.08821429 67.9710951 250.13172693 58.57910156 250.11352539 C57.27805481 250.11344986 55.97700806 250.11337433 54.63653564 250.11329651 C53.22123171 250.10819024 51.80592816 250.10297425 50.390625 250.09765625 C48.93902637 250.09579035 47.48742712 250.09436726 46.03582764 250.09336853 C42.22180431 250.08955688 38.40781927 250.07973815 34.59381104 250.06866455 C30.01410208 250.05661928 25.4343803 250.05204175 20.85466003 250.04621124 C13.90308009 250.03652566 6.9515841 250.01735967 0 250 C0 236.8 0 223.6 0 210 C5.34445313 209.96132813 5.34445313 209.96132813 10.796875 209.921875 C14.2455233 209.88346875 17.69402136 209.83830376 21.14257812 209.79248047 C23.5402917 209.76424535 25.93809879 209.74304354 28.3359375 209.72900391 C31.78173797 209.70761028 35.22641095 209.6609762 38.671875 209.609375 C39.74491882 209.60814636 40.81796265 209.60691772 41.92352295 209.60565186 C42.92425842 209.58593323 43.9249939 209.5662146 44.95605469 209.54589844 C45.83541687 209.53701599 46.71477905 209.52813354 47.62078857 209.51898193 C50.83119779 208.81868924 52.02594934 207.59107206 54 205 C54.58761735 202.79777388 54.58761735 202.79777388 54.49829102 200.41845703 C54.51334435 199.06652756 54.51334435 199.06652756 54.52870178 197.68728638 C54.52051926 196.72056 54.51233673 195.75383362 54.50390625 194.7578125 C54.51332748 193.75668427 54.52274872 192.75555603 54.53245544 191.72409058 C54.56113535 188.52418587 54.56418296 185.32502292 54.5625 182.125 C54.5661101 178.93222623 54.57568481 175.73999386 54.60325623 172.54733276 C54.62001159 170.56182674 54.62294632 168.57614279 54.61024475 166.59060669 C54.65706952 160.41665582 55.41381695 156.0086783 59.578125 151.1640625 C60.12984375 150.65617188 60.6815625 150.14828125 61.25 149.625 C65.09114471 145.95367432 68.54478111 142.03240648 72 138 C72.57363281 137.34257812 73.14726562 136.68515625 73.73828125 136.0078125 C74.27839844 135.38648438 74.81851563 134.76515625 75.375 134.125 C75.85710937 133.57070312 76.33921875 133.01640625 76.8359375 132.4453125 C79.10598783 129.62679364 79.58093638 126.95384047 79.53515625 123.34375 C77.85263523 115.97504479 70.19686985 110.10668965 64.9609375 105.015625 C59.66370161 99.57065743 54.8787087 94.4731495 54.87402344 86.60791016 C54.87021667 85.72334137 54.86640991 84.83877258 54.86248779 83.92739868 C54.86146057 82.97424774 54.86043335 82.0210968 54.859375 81.0390625 C54.84105011 79.02082202 54.8214801 77.00259253 54.80078125 74.984375 C54.77179003 71.80221981 54.74999935 68.62077251 54.74951172 65.43847656 C54.74617855 62.36719947 54.71164014 59.29755607 54.671875 56.2265625 C54.6789447 55.27746002 54.6860144 54.32835754 54.69329834 53.35049438 C54.61511881 49.10764828 54.35831836 46.60220096 52.15844727 42.9050293 C47.44752551 40.0636192 43.20133539 40.27263508 37.79296875 40.29296875 C36.71243729 40.27784744 35.63190582 40.26272614 34.51863098 40.24714661 C31.07470898 40.20423242 27.63166287 40.19542756 24.1875 40.1875 C21.84958603 40.16435875 19.51169293 40.1389942 17.17382812 40.11132812 C11.44874052 40.04426107 5.72610048 40.0233372 0 40 C0 26.8 0 13.6 0 0 Z " fill="#0B448F" transform="translate(197,35)"/>
<path d="M0 0 C1.99598317 0.05018287 3.99208654 0.09580641 5.98828125 0.13671875 C10.87015768 0.24670939 15.74626541 0.41910612 20.625 0.625 C19.92838746 3.60614696 19.0583224 5.85288741 17.46484375 8.4765625 C17.00948242 9.23146973 16.55412109 9.98637695 16.08496094 10.76416016 C15.33134277 11.99465088 15.33134277 11.99465088 14.5625 13.25 C13.76827637 14.55976807 13.76827637 14.55976807 12.95800781 15.89599609 C11.18729709 18.80997226 9.40741174 21.71816744 7.625 24.625 C6.6961499 26.1409375 6.6961499 26.1409375 5.74853516 27.6875 C1.74233427 34.21990399 -2.27745509 40.74387252 -6.30175781 47.26513672 C-9.70419098 52.77906573 -13.10275315 58.29537441 -16.5 63.8125 C-17.15758301 64.87992432 -17.81516602 65.94734863 -18.49267578 67.04711914 C-21.77099962 72.37368657 -25.03717379 77.70718361 -28.28125 83.0546875 C-28.90757324 84.08698486 -29.53389648 85.11928223 -30.17919922 86.18286133 C-31.34937321 88.11385238 -32.51781453 90.04589507 -33.68408203 91.97924805 C-34.73606996 93.71597227 -35.81034547 95.4394329 -36.90869141 97.1472168 C-38.44567014 99.57749496 -38.44567014 99.57749496 -39.35302734 102.25317383 C-40.69613465 105.33578953 -41.57552067 106.70987502 -44.375 108.625 C-51.33222828 110.15526256 -58.68836878 109.46364347 -65.75 109.1875 C-67.74600417 109.14233494 -69.74210571 109.10127387 -71.73828125 109.06445312 C-76.61959409 108.96547297 -81.49623247 108.81030574 -86.375 108.625 C-84.99308477 104.88505482 -83.27767639 101.64005534 -81.171875 98.2578125 C-80.52839111 97.21906982 -79.88490723 96.18032715 -79.22192383 95.11010742 C-78.52993896 94.00127197 -77.8379541 92.89243652 -77.125 91.75 C-76.03385365 89.99166257 -74.94416943 88.23242468 -73.85456848 86.47312927 C-73.11297216 85.27588687 -72.37093407 84.07891799 -71.62846375 82.88221741 C-68.1130523 77.21356991 -64.64654229 71.51569665 -61.1875 65.8125 C-56.784189 58.5618139 -52.3488971 51.33234241 -47.875 44.125 C-43.19415457 36.58363792 -38.55159449 29.01989731 -33.9375 21.4375 C-33.3703125 20.50550781 -32.803125 19.57351562 -32.21875 18.61328125 C-31.67347656 17.71609375 -31.12820312 16.81890625 -30.56640625 15.89453125 C-30.01307617 15.02699219 -29.45974609 14.15945312 -28.88964844 13.265625 C-27.28818751 10.66500269 -27.28818751 10.66500269 -26.38378906 7.75 C-22.04162465 -3.32271503 -9.9758987 -0.43345026 0 0 Z " fill="#0F4791" transform="translate(199.375,105.375)"/>
<path d="M0 0 C0.66 0.33 1.32 0.66 2 1 C-1.63 4.63 -5.26 8.26 -9 12 C-9 8.47601214 -8.44884893 7.98495633 -6.1875 5.4375 C-5.40439453 4.53837891 -5.40439453 4.53837891 -4.60546875 3.62109375 C-3 2 -3 2 0 0 Z " fill="#6D8FBC" transform="translate(57,41)"/>
</svg>