<?xml version="1.0" encoding="UTF-8"?>
<svg id="Layer_1" data-name="Layer 1" xmlns="http://www.w3.org/2000/svg" viewBox="0 0 1000 1000">
  <defs>
    <style>
      .cls-1 {
        fill: #38489d;
      }

      .cls-2 {
        fill: #1d1850;
      }

      .cls-3 {
        fill: #a8d6f2;
      }
    </style>
  </defs>
  <path class="cls-2" d="m490.16,235.1c-129.54,8.31-235.89,111.12-248.29,240.33-12.35,128.75,67.53,241.4,181.23,279.42,7,2.34,14.28-2.72,14.28-10.1v-49.77c0-4.34-2.67-8.16-6.67-9.85-71.65-30.14-122.11-101.07-122.11-183.51,0-109.84,89.35-199.1,199.1-199.1,95.8,0,175.92,67.83,194.75,158.05.76,3.63-2.12,7.05-5.83,7.05h-172.51c-9.06,0-16.41,7.35-16.41,16.41v34.99c0,9.06,7.34,16.4,16.39,16.41l182.7.18h33.99v-.19h24.33c5.34,0,9.66-4.33,9.66-9.66v-24.14c0-153.13-129.37-276.47-284.61-266.52Z"/>
  <path class="cls-3" d="m708.79,674.72h-182.69c-9.06,0-16.41,7.35-16.41,16.41v35.17c0,9.06,7.35,16.41,16.41,16.41h234.26c9.06,0,16.41-7.35,16.41-16.41v-35.46c0-9.06-7.35-16.41-16.41-16.41h-51.57v.29Z"/>
  <path class="cls-1" d="m708.79,557.98h-180.84c-9.06,0-16.41,7.35-16.41,16.41v35.17c0,9.06,7.35,16.41,16.41,16.41h232.42c9.06,0,16.41-7.35,16.41-16.41v-35.36c0-9.06-7.35-16.41-16.41-16.41h-51.57v.19Z"/>
</svg>
